<?xml version="1.0" encoding="utf-8"?>
<!-- Generator: Adobe Illustrator 24.1.1, SVG Export Plug-In . SVG Version: 6.00 Build 0)  -->
<svg version="1.1" id="Layer_1" xmlns="http://www.w3.org/2000/svg" xmlns:xlink="http://www.w3.org/1999/xlink" x="0px" y="0px"
	 viewBox="0 0 512 512" style="enable-background:new 0 0 512 512;" xml:space="preserve">
<g>
	<path d="M256,8C112,8,0,120,0,264c0,168,152,240,176,240c16,0,16-8,16-16v-40c-56,16-80-16-88-40c0,0,0-8-16-24c-8-8-40-24-8-24
		c24,0,40,32,40,32c24,32,56,24,72,16c0-16,16-32,16-32c-64-8-112-32-112-120c0-32,8-56,24-72c0,0-16-32,0-72c0,0,40,0,72,32
		c24-16,104-16,128,0c32-32,72-32,72-32c16,56,0,72,0,72c16,16,24,40,24,72c0,88-56,112-112,120c8,8,16,24,16,48v64c0,8,0,16,16,16
		c24,0,176-72,176-240C512,120,400,8,256,8z"/>
</g>
</svg>
