<?xml version="1.0" encoding="utf-8"?>
<!-- Generator: Adobe Illustrator 27.2.0, SVG Export Plug-In . SVG Version: 6.00 Build 0)  -->
<svg version="1.1" id="Layer_1" xmlns="http://www.w3.org/2000/svg" xmlns:xlink="http://www.w3.org/1999/xlink" x="0px" y="0px"
	 viewBox="0 0 512 512" style="enable-background:new 0 0 512 512;" xml:space="preserve">
<style type="text/css">
	.st0{fill:url(#SVGID_1_);}
	.st1{fill:url(#SVGID_00000018953585009799231410000011820478225291585692_);}
	.st2{fill:url(#SVGID_00000005974172242708215520000011758554163959445139_);}
	.st3{fill:url(#SVGID_00000049905146121285771550000006777771466523177364_);}
	.st4{fill:#FFFFFF;}
</style>
<g>
	
		<radialGradient id="SVGID_1_" cx="-520.2018" cy="181.6255" r="26.804" gradientTransform="matrix(-11.7467 3.3128 2.3868 8.4629 -6048.6646 426.2446)" gradientUnits="userSpaceOnUse">
		<stop  offset="0" style="stop-color:#FF005F"/>
		<stop  offset="1" style="stop-color:#FC01D8"/>
	</radialGradient>
	<path class="st0" d="M256.08,0C149.21,0,117.95,0.11,111.87,0.61C89.94,2.44,76.29,5.89,61.42,13.3
		c-11.46,5.69-20.5,12.29-29.41,21.54C15.76,51.7,5.92,72.45,2.36,97.11c-1.73,11.97-2.24,14.42-2.34,75.58
		c-0.04,20.39,0,47.22,0,83.21c0,106.82,0.12,138.05,0.63,144.12c1.77,21.35,5.12,34.78,12.21,49.47
		c13.55,28.12,39.42,49.23,69.89,57.11c10.55,2.72,22.21,4.21,37.17,4.92c6.34,0.28,70.96,0.47,135.62,0.47
		c64.66,0,129.31-0.08,135.5-0.39c17.33-0.82,27.39-2.17,38.51-5.04c30.67-7.92,56.07-28.71,69.89-57.23
		c6.95-14.34,10.47-28.28,12.07-48.51c0.35-4.41,0.49-74.75,0.49-144.99c0-70.25-0.16-140.46-0.5-144.87
		c-1.61-20.56-5.14-34.39-12.31-49c-5.89-11.96-12.42-20.9-21.91-30.03c-16.94-16.18-37.65-26.03-62.33-29.59
		C402.98,0.62,400.6,0.11,339.41,0L256.08,0z"/>
	
		<radialGradient id="SVGID_00000073712934212890476080000016141849765588838843_" cx="-528.6609" cy="183.468" r="26.804" gradientTransform="matrix(0 -15.2473 -16.1771 0 3103.9697 -7509.2153)" gradientUnits="userSpaceOnUse">
		<stop  offset="0" style="stop-color:#FFCC00"/>
		<stop  offset="0.1242" style="stop-color:#FFCC00"/>
		<stop  offset="0.5672" style="stop-color:#FE4A05"/>
		<stop  offset="0.6942" style="stop-color:#FF0F3F"/>
		<stop  offset="1" style="stop-color:#FE0657;stop-opacity:0"/>
	</radialGradient>
	<path style="fill:url(#SVGID_00000073712934212890476080000016141849765588838843_);" d="M256.08,0
		C149.21,0,117.95,0.11,111.87,0.61C89.94,2.44,76.29,5.89,61.42,13.3c-11.46,5.69-20.5,12.29-29.41,21.54
		C15.76,51.7,5.92,72.45,2.36,97.11c-1.73,11.97-2.24,14.42-2.34,75.58c-0.04,20.39,0,47.22,0,83.21
		c0,106.82,0.12,138.05,0.63,144.12c1.77,21.35,5.12,34.78,12.21,49.47c13.55,28.12,39.42,49.23,69.89,57.11
		c10.55,2.72,22.21,4.21,37.17,4.92c6.34,0.28,70.96,0.47,135.62,0.47c64.66,0,129.31-0.08,135.5-0.39
		c17.33-0.82,27.39-2.17,38.51-5.04c30.67-7.92,56.07-28.71,69.89-57.23c6.95-14.34,10.47-28.28,12.07-48.51
		c0.35-4.41,0.49-74.75,0.49-144.99c0-70.25-0.16-140.46-0.5-144.87c-1.61-20.56-5.14-34.39-12.31-49
		c-5.89-11.96-12.42-20.9-21.91-30.03c-16.94-16.18-37.65-26.03-62.33-29.59C402.98,0.62,400.6,0.11,339.41,0L256.08,0z"/>
	
		<radialGradient id="SVGID_00000158718518187897504910000006995950509784446090_" cx="-452.4883" cy="152.9143" r="33.28" gradientTransform="matrix(2.549 -4.3919 -5.7178 -3.3185 2296.6394 -975.0748)" gradientUnits="userSpaceOnUse">
		<stop  offset="0" style="stop-color:#FFCC00"/>
		<stop  offset="1" style="stop-color:#FFCC00;stop-opacity:0"/>
	</radialGradient>
	<path style="fill:url(#SVGID_00000158718518187897504910000006995950509784446090_);" d="M256.08,0
		C149.21,0,117.95,0.11,111.87,0.61C89.94,2.44,76.29,5.89,61.42,13.3c-11.46,5.69-20.5,12.29-29.41,21.54
		C15.76,51.7,5.92,72.45,2.36,97.11c-1.73,11.97-2.24,14.42-2.34,75.58c-0.04,20.39,0,47.22,0,83.21
		c0,106.82,0.12,138.05,0.63,144.12c1.77,21.35,5.12,34.78,12.21,49.47c13.55,28.12,39.42,49.23,69.89,57.11
		c10.55,2.72,22.21,4.21,37.17,4.92c6.34,0.28,70.96,0.47,135.62,0.47c64.66,0,129.31-0.08,135.5-0.39
		c17.33-0.82,27.39-2.17,38.51-5.04c30.67-7.92,56.07-28.71,69.89-57.23c6.95-14.34,10.47-28.28,12.07-48.51
		c0.35-4.41,0.49-74.75,0.49-144.99c0-70.25-0.16-140.46-0.5-144.87c-1.61-20.56-5.14-34.39-12.31-49
		c-5.89-11.96-12.42-20.9-21.91-30.03c-16.94-16.18-37.65-26.03-62.33-29.59C402.98,0.62,400.6,0.11,339.41,0L256.08,0z"/>
	
		<radialGradient id="SVGID_00000040557258480750080000000000479781545263481728_" cx="-616.4937" cy="878.3702" r="34.3455" gradientTransform="matrix(-9.0667 2.553 0.8696 3.0891 -6283.9277 -1118.5817)" gradientUnits="userSpaceOnUse">
		<stop  offset="0" style="stop-color:#780CFF"/>
		<stop  offset="1" style="stop-color:#820BFF;stop-opacity:0"/>
	</radialGradient>
	<path style="fill:url(#SVGID_00000040557258480750080000000000479781545263481728_);" d="M256.08,0
		C149.21,0,117.95,0.11,111.87,0.61C89.94,2.44,76.29,5.89,61.42,13.3c-11.46,5.69-20.5,12.29-29.41,21.54
		C15.76,51.7,5.92,72.45,2.36,97.11c-1.73,11.97-2.24,14.42-2.34,75.58c-0.04,20.39,0,47.22,0,83.21
		c0,106.82,0.12,138.05,0.63,144.12c1.77,21.35,5.12,34.78,12.21,49.47c13.55,28.12,39.42,49.23,69.89,57.11
		c10.55,2.72,22.21,4.21,37.17,4.92c6.34,0.28,70.96,0.47,135.62,0.47c64.66,0,129.31-0.08,135.5-0.39
		c17.33-0.82,27.39-2.17,38.51-5.04c30.67-7.92,56.07-28.71,69.89-57.23c6.95-14.34,10.47-28.28,12.07-48.51
		c0.35-4.41,0.49-74.75,0.49-144.99c0-70.25-0.16-140.46-0.5-144.87c-1.61-20.56-5.14-34.39-12.31-49
		c-5.89-11.96-12.42-20.9-21.91-30.03c-16.94-16.18-37.65-26.03-62.33-29.59C402.98,0.62,400.6,0.11,339.41,0L256.08,0z"/>
	<path class="st4" d="M256.1,65.74c-51.7,0-58.19,0.23-78.49,1.15c-20.27,0.93-34.1,4.13-46.2,8.84
		c-12.52,4.86-23.14,11.36-33.72,21.93c-10.59,10.57-17.09,21.19-21.97,33.69c-4.72,12.1-7.93,25.93-8.84,46.17
		c-0.91,20.29-1.15,26.78-1.15,78.44c0,51.66,0.23,58.13,1.15,78.42c0.93,20.25,4.14,34.07,8.84,46.17
		c4.87,12.51,11.37,23.12,21.96,33.7c10.58,10.58,21.2,17.1,33.71,21.96c12.11,4.7,25.95,7.91,46.21,8.84
		c20.31,0.92,26.79,1.15,78.49,1.15c51.7,0,58.17-0.23,78.48-1.15c20.27-0.93,34.12-4.13,46.23-8.84
		c12.52-4.86,23.12-11.37,33.7-21.95c10.59-10.57,17.09-21.19,21.97-33.69c4.68-12.1,7.89-25.93,8.84-46.17
		c0.91-20.29,1.15-26.76,1.15-78.42c0-51.66-0.24-58.15-1.15-78.44c-0.95-20.25-4.16-34.07-8.84-46.17
		c-4.88-12.51-11.38-23.12-21.97-33.7c-10.59-10.58-21.18-17.08-33.71-21.94c-12.14-4.7-25.98-7.91-46.24-8.84
		c-20.31-0.92-26.77-1.15-78.49-1.15L256.1,65.74z M239.03,100.02c5.07-0.01,10.72,0,17.08,0c50.83,0,56.85,0.18,76.92,1.09
		c18.56,0.85,28.63,3.95,35.34,6.55c8.88,3.45,15.22,7.57,21.88,14.23c6.66,6.66,10.79,13,14.25,21.88
		c2.61,6.7,5.71,16.76,6.56,35.31c0.91,20.05,1.11,26.08,1.11,76.84c0,50.77-0.2,56.79-1.11,76.84
		c-0.85,18.55-3.95,28.61-6.56,35.31c-3.45,8.88-7.58,15.2-14.25,21.85c-6.66,6.66-12.99,10.78-21.88,14.23
		c-6.7,2.62-16.78,5.71-35.34,6.55c-20.07,0.91-26.1,1.11-76.92,1.11c-50.83,0-56.86-0.2-76.92-1.11
		c-18.56-0.86-28.63-3.95-35.35-6.56c-8.88-3.45-15.23-7.57-21.89-14.23c-6.66-6.66-10.79-12.98-14.25-21.86
		c-2.61-6.7-5.71-16.76-6.56-35.31c-0.91-20.05-1.09-26.08-1.09-76.87c0-50.8,0.18-56.79,1.09-76.84
		c0.85-18.55,3.95-28.61,6.56-35.32c3.45-8.88,7.58-15.22,14.25-21.88c6.66-6.66,13.01-10.78,21.89-14.24
		c6.71-2.62,16.79-5.71,35.35-6.56c17.56-0.79,24.37-1.03,59.85-1.07L239.03,100.02z M357.72,131.61
		c-12.61,0-22.84,10.21-22.84,22.82c0,12.6,10.23,22.83,22.84,22.83c12.61,0,22.84-10.22,22.84-22.83
		C380.56,141.82,370.33,131.6,357.72,131.61L357.72,131.61z M256.1,158.28c-53.99,0-97.76,43.74-97.76,97.69
		s43.77,97.67,97.76,97.67s97.74-43.72,97.74-97.67S310.09,158.28,256.1,158.28L256.1,158.28z M256.1,192.56
		c35.04,0,63.46,28.39,63.46,63.41c0,35.02-28.41,63.41-63.46,63.41c-35.05,0-63.46-28.39-63.46-63.41
		C192.65,220.94,221.06,192.56,256.1,192.56L256.1,192.56z"/>
</g>
</svg>
